<svg viewBox="0 0 1076 1076" xmlns="http://www.w3.org/2000/svg"><g transform="translate(38, 38)"><path d="M -38,498 h 242 M 166,294 v 242 M 128,332 h 242 M 332,294 v 242 M 294,498 h 242" fill="none" stroke="oklch(76% 70% 183)" stroke-width="76" transform=""></path><path d="M -38,498 h 242 M 166,294 v 242 M 128,332 h 242 M 332,294 v 242 M 294,498 h 242" fill="none" stroke="oklch(76% 70% 183)" stroke-width="76" transform="rotate(90, 500, 500)"></path><path d="M -38,498 h 242 M 166,294 v 242 M 128,332 h 242 M 332,294 v 242 M 294,498 h 242" fill="none" stroke="oklch(76% 70% 183)" stroke-width="76" transform="rotate(180, 500, 500)"></path><path d="M -38,498 h 242 M 166,294 v 242 M 128,332 h 242 M 332,294 v 242 M 294,498 h 242" fill="none" stroke="oklch(76% 70% 183)" stroke-width="76" transform="rotate(270, 500, 500)"></path><path d="M -38,498 h 242 M 166,294 v 242 M 128,332 h 242 M 332,294 v 242 M 294,498 h 242" fill="none" stroke="oklch(76% 70% 183)" stroke-width="76" transform="rotate(90, 0, 0) scale(1,-1)"></path><path d="M -38,498 h 242 M 166,294 v 242 M 128,332 h 242 M 332,294 v 242 M 294,498 h 242" fill="none" stroke="oklch(76% 70% 183)" stroke-width="76" transform="rotate(90, 0, 0) scale(1,-1) rotate(90, 500, 500)"></path><path d="M -38,498 h 242 M 166,294 v 242 M 128,332 h 242 M 332,294 v 242 M 294,498 h 242" fill="none" stroke="oklch(76% 70% 183)" stroke-width="76" transform="rotate(90, 0, 0) scale(1,-1) rotate(180, 500, 500)"></path><path d="M -38,498 h 242 M 166,294 v 242 M 128,332 h 242 M 332,294 v 242 M 294,498 h 242" fill="none" stroke="oklch(76% 70% 183)" stroke-width="76" transform="rotate(90, 0, 0) scale(1,-1) rotate(270, 500, 500)"></path></g></svg>