<svg viewBox="0 0 1430 1430" xmlns="http://www.w3.org/2000/svg"><rect height="1430" width="1430" fill="#f18b26" x="0" y="0"></rect><g transform="translate(215, 215)"><path d="M 0,207 v 212 M -43,375 h 212 M 125,207 v 212 M 82,250 h 212 M 250,332 v 212" fill="none" stroke="#1c0000" stroke-width="87" transform=""></path><path d="M 0,207 v 212 M -43,375 h 212 M 125,207 v 212 M 82,250 h 212 M 250,332 v 212" fill="none" stroke="#1c0000" stroke-width="87" transform="rotate(90, 500, 500)"></path><path d="M 0,207 v 212 M -43,375 h 212 M 125,207 v 212 M 82,250 h 212 M 250,332 v 212" fill="none" stroke="#1c0000" stroke-width="87" transform="rotate(180, 500, 500)"></path><path d="M 0,207 v 212 M -43,375 h 212 M 125,207 v 212 M 82,250 h 212 M 250,332 v 212" fill="none" stroke="#1c0000" stroke-width="87" transform="rotate(270, 500, 500)"></path><path d="M 0,207 v 212 M -43,375 h 212 M 125,207 v 212 M 82,250 h 212 M 250,332 v 212" fill="none" stroke="#1c0000" stroke-width="87" transform="rotate(90, 0, 0) scale(1,-1)"></path><path d="M 0,207 v 212 M -43,375 h 212 M 125,207 v 212 M 82,250 h 212 M 250,332 v 212" fill="none" stroke="#1c0000" stroke-width="87" transform="rotate(90, 0, 0) scale(1,-1) rotate(90, 500, 500)"></path><path d="M 0,207 v 212 M -43,375 h 212 M 125,207 v 212 M 82,250 h 212 M 250,332 v 212" fill="none" stroke="#1c0000" stroke-width="87" transform="rotate(90, 0, 0) scale(1,-1) rotate(180, 500, 500)"></path><path d="M 0,207 v 212 M -43,375 h 212 M 125,207 v 212 M 82,250 h 212 M 250,332 v 212" fill="none" stroke="#1c0000" stroke-width="87" transform="rotate(90, 0, 0) scale(1,-1) rotate(270, 500, 500)"></path></g></svg>